<svg width="269" height="72" viewBox="0 0 269 72" fill="none" xmlns="http://www.w3.org/2000/svg">
<path d="M38.0679 56.8401C38.389 54.9165 38.6642 52.9928 38.5266 51.1149C38.389 49.2371 37.701 47.4966 36.4627 46.26C35.1326 44.8859 33.7107 43.4203 32.5182 41.6798C32.243 41.2676 31.9679 40.7638 31.6927 40.3516C31.4175 39.802 31.1881 39.2523 31.0505 38.7027C30.8671 37.5577 30.7295 36.5043 30.7295 35.405C30.7295 34.3058 30.913 33.0691 31.3257 32.0157C31.7385 30.9165 32.2889 29.9546 32.9769 29.0386C33.7107 28.0768 34.5363 27.3898 35.2702 26.7485C35.6371 26.4279 35.9581 26.1531 36.2792 25.8783C36.5544 25.6035 36.8754 25.2829 37.1506 25.0081C39.4439 22.5806 40.5447 19.0539 39.4898 15.2065C39.4439 15.1149 39.5356 15.0233 39.6274 14.9775C39.6732 14.9775 39.765 14.9775 39.8108 15.0233C41.2327 16.489 42.0582 18.6875 42.0124 20.8859C42.0124 21.9852 41.8289 23.1302 41.462 24.1836C41.0951 25.2371 40.5447 26.2447 39.9026 27.1607C39.5815 27.6188 39.2146 28.031 38.8018 28.4432C38.4349 28.8554 38.0221 29.2218 37.6093 29.5424C36.8296 30.1836 36.1416 30.7333 35.6371 31.2829C35.0867 31.8783 34.5822 32.5653 34.2153 33.2523C33.8483 33.9852 33.6649 34.6722 33.5731 35.5424C33.4814 36.4127 33.5273 37.2829 33.6649 38.1073C33.7566 38.5195 33.8483 38.8859 33.9859 39.2065C34.1694 39.6188 34.3529 40.031 34.5822 40.4432C35.4536 42.0462 36.5544 43.6035 37.7928 45.1607C38.4349 46.031 38.9394 46.9928 39.2146 48.0004C39.4898 49.0081 39.6274 50.0615 39.5815 51.0691C39.5356 53.1302 38.9852 55.0539 38.389 56.8859C38.3431 56.9775 38.2514 57.0233 38.1597 56.9775C38.1138 57.0233 38.0679 56.9317 38.0679 56.8401Z" fill="#93CE28"/>
<path d="M34.628 56.8403C34.9491 55.4204 35.1784 53.9548 35.1326 52.5349C35.0867 51.1151 34.628 49.7868 33.8025 48.8708C33.3897 48.4128 32.8393 47.9548 32.2889 47.5426C31.7385 47.1303 31.1423 46.7639 30.5002 46.3517C29.2159 45.5273 27.9317 44.5655 26.7851 43.4662C25.6384 42.3212 24.6294 41.0387 23.8497 39.5731C23.07 38.1074 22.6572 36.5044 22.6113 34.7181C22.6113 33.0235 23.0241 31.3288 23.758 29.8632C24.5377 28.3975 25.6384 27.1609 27.0144 26.3823C27.1061 26.3365 27.1979 26.3823 27.2437 26.4281C27.2896 26.4739 27.2896 26.5197 27.2437 26.5655C26.5557 27.9395 26.0971 29.2219 25.8678 30.5502C25.6384 31.8784 25.5926 33.2067 25.776 34.4433C25.9595 35.6342 26.3264 36.9166 26.7851 38.1532C27.2437 39.3899 27.84 40.5807 28.7114 41.6342C29.5829 42.6876 30.5919 43.6494 31.7385 44.5197C32.2889 44.9777 32.931 45.4357 33.5273 45.9853C34.1235 46.5349 34.628 47.0845 35.1326 47.8174C36.0957 49.2372 36.3251 50.9777 36.1416 52.5349C36.004 54.0922 35.4995 55.5578 34.9032 56.9319C34.8574 57.0235 34.7656 57.0693 34.6739 57.0235C34.628 56.9777 34.5822 56.8861 34.628 56.8403Z" fill="#93CE28"/>
<path d="M42.5168 35.3588C42.2416 34.4428 42.3792 33.3436 42.792 32.4275C43.2048 31.4657 43.9386 30.6413 44.8101 30C45.6815 29.3588 46.7823 28.9466 47.9748 28.9008C49.1673 28.855 50.3139 29.1756 51.323 29.7252C53.341 30.8245 54.6711 32.8855 54.9463 35.1756C55.1756 37.4657 54.3501 39.5726 53.0658 41.2214C52.4237 42.0459 51.644 42.7329 50.7267 43.2367C50.3139 43.5115 49.8094 43.7405 49.3966 43.9237C48.9838 44.1069 48.571 44.2443 48.1583 44.4275C47.7455 44.6107 47.3327 44.7481 46.9658 44.9313L46.7364 45.023C46.6906 45.023 46.6906 45.023 46.6906 45.023C46.5988 45.0688 46.553 45.1146 46.5071 45.1604L45.9567 45.481C45.2687 45.939 44.6266 46.4428 44.168 47.0382C44.0304 47.1756 43.9386 47.3588 43.8469 47.4962C43.7552 47.6336 43.6634 47.8168 43.5717 48.0001C43.3883 48.3665 43.2507 48.7787 43.0672 49.1909C42.792 49.9695 42.5627 50.8397 42.4709 51.6642C42.2416 53.3588 42.4251 55.0993 42.9296 56.7939C42.9755 56.8855 42.9296 56.9772 42.8379 56.9772C42.7461 57.023 42.6544 56.9771 42.6544 56.8855C42.2416 56.0611 41.9664 55.1909 41.7371 54.3207C41.5536 53.4046 41.4619 52.4886 41.4619 51.5726C41.4619 50.6565 41.5995 49.6947 41.783 48.7787C41.8747 48.3207 42.0123 47.8626 42.1499 47.4046C42.1958 47.1756 42.3334 46.9466 42.4251 46.7176C42.5627 46.4886 42.6544 46.2596 42.792 46.0306C43.3424 45.1604 44.0762 44.5191 44.8559 43.9237L45.4063 43.5115H45.4522C45.5439 43.4657 45.6357 43.3741 45.6815 43.3741C45.8191 43.2825 45.9109 43.2367 46.0484 43.1909C46.4612 42.9619 46.874 42.7787 47.2868 42.5497C48.0665 42.1375 48.8921 41.8168 49.4883 41.3588C50.0846 40.9008 50.635 40.3512 51.0478 39.7558C51.4606 39.1604 51.7357 38.4275 51.9192 37.7405C52.0568 37.0535 52.0568 36.3207 51.8733 35.7252C51.5523 34.4886 50.6808 33.3436 49.6718 32.6107C48.6169 31.8779 47.3785 31.6031 46.0026 32.1069C44.6725 32.6107 43.3883 33.6642 42.8837 35.4046C42.8379 35.4962 42.7461 35.542 42.6544 35.542C42.5627 35.4504 42.5627 35.4046 42.5168 35.3588Z" fill="#93CE28"/>
<path d="M79.9893 37.8772C80.1728 38.0605 80.2645 38.3353 80.2645 38.7017C80.2645 38.9765 80.2187 39.2513 80.1269 39.4803L76.0908 51.6177C75.9991 51.8925 75.8156 52.0757 75.5863 52.2589C75.357 52.4421 75.0818 52.5337 74.8066 52.5337C74.4855 52.5337 74.2103 52.4421 73.981 52.2589C73.7517 52.0757 73.5682 51.8925 73.5223 51.6177L70.8163 41.6788L67.9726 51.6177C67.8809 51.8925 67.6974 52.0757 67.4681 52.2589C67.2388 52.4421 66.9636 52.5337 66.6425 52.5337C66.3215 52.5337 66.0922 52.4421 65.817 52.2589C65.5876 52.0757 65.4042 51.8925 65.3124 51.6177L61.2763 39.4803C61.1846 39.2513 61.1846 38.9765 61.1846 38.7017C61.1846 37.9231 61.5515 37.5566 62.3312 37.5566C62.6981 37.5566 62.9733 37.6482 63.2026 37.8772C63.432 38.0605 63.6154 38.3811 63.753 38.8391L66.7343 48.0452L69.5321 38.6101C69.6238 38.2895 69.7614 38.0605 69.9907 37.8772C70.22 37.694 70.4952 37.6024 70.8622 37.6024C71.2291 37.6024 71.5043 37.694 71.7336 37.8772C71.9629 38.0605 72.1005 38.3353 72.1922 38.6101L74.669 48.2284L77.6961 38.7933C77.9713 38.0147 78.4299 37.5566 79.1638 37.5566C79.5307 37.5566 79.8059 37.694 79.9893 37.8772Z" fill="#FFA800"/>
<path d="M83.567 34.6252C83.2001 34.2588 83.0166 33.8466 83.0166 33.3428C83.0166 32.839 83.2001 32.4268 83.567 32.0604C83.9339 31.6939 84.3467 31.5107 84.8512 31.5107C85.3557 31.5107 85.7685 31.6939 86.1354 32.0604C86.5024 32.4268 86.6858 32.839 86.6858 33.3428C86.6858 33.8466 86.5024 34.2588 86.1354 34.6252C85.7685 34.9917 85.3557 35.1749 84.8512 35.1749C84.3467 35.1749 83.9339 34.9459 83.567 34.6252ZM83.8422 52.1672C83.567 51.8924 83.4294 51.5718 83.4294 51.1596V38.9764C83.4294 38.5642 83.567 38.1978 83.8422 37.9688C84.1174 37.6939 84.4384 37.6023 84.8512 37.6023C85.264 37.6023 85.6309 37.7397 85.8602 37.9688C86.1354 38.2436 86.2272 38.5642 86.2272 38.9764V51.1596C86.2272 51.5718 86.0896 51.8924 85.8602 52.1672C85.585 52.442 85.264 52.5794 84.8512 52.5794C84.4384 52.5336 84.1174 52.3962 83.8422 52.1672Z" fill="#FFA800"/>
<path d="M93.3817 52.0756C92.2809 51.7092 91.4095 51.2054 90.8132 50.5642C90.5839 50.3352 90.4463 50.0604 90.4463 49.694C90.4463 49.2359 90.6297 48.9153 90.9967 48.6405C91.3636 48.3657 91.6847 48.2741 91.9598 48.2741C92.3268 48.2741 92.6937 48.4573 93.0148 48.7779C93.3817 49.1443 93.8862 49.5107 94.5742 49.7856C95.2621 50.0604 95.996 50.1978 96.7757 50.1978C97.8306 50.1978 98.6103 50.0146 99.2066 49.694C99.8028 49.3275 100.078 48.8695 100.078 48.3199C100.078 47.7703 99.8028 47.2665 99.2066 46.9001C98.6562 46.5336 97.693 46.213 96.3171 45.9382C92.8313 45.2512 91.0425 43.8314 91.0425 41.6329C91.0425 40.7627 91.3177 39.984 91.8222 39.3428C92.3726 38.7016 93.0606 38.2436 93.8862 37.9688C94.7576 37.6481 95.6749 37.5107 96.6381 37.5107C97.8306 37.5107 98.8855 37.6939 99.8487 38.1062C100.766 38.4726 101.546 39.0222 102.096 39.7092C102.325 39.984 102.463 40.3046 102.463 40.5794C102.463 40.9001 102.325 41.1749 102.004 41.4497C101.821 41.5871 101.546 41.6787 101.225 41.6787C100.766 41.6787 100.307 41.4955 99.9404 41.1749C99.4818 40.7627 98.9772 40.442 98.4727 40.3046C97.9682 40.1214 97.3261 40.0298 96.5922 40.0298C95.7667 40.0298 95.0787 40.1672 94.5283 40.442C93.9779 40.7169 93.7027 41.1291 93.7027 41.6329C93.7027 41.9993 93.7945 42.3199 93.9779 42.5489C94.1614 42.7779 94.5283 43.0069 95.0328 43.2359C95.5373 43.4649 96.2712 43.6481 97.2344 43.8314C99.2066 44.2436 100.628 44.7932 101.454 45.4802C102.28 46.213 102.692 47.1291 102.692 48.2283C102.692 49.0527 102.463 49.8314 102.004 50.5184C101.546 51.2054 100.858 51.755 99.9863 52.1214C99.1148 52.5337 98.0141 52.7169 96.7757 52.7169C95.6749 52.6711 94.4824 52.442 93.3817 52.0756Z" fill="#FFA800"/>
<path d="M117.186 38.2439C118.195 38.7935 118.975 39.5721 119.526 40.6255C120.076 41.679 120.397 42.9156 120.397 44.4271V51.1599C120.397 51.5721 120.259 51.8927 119.984 52.1675C119.709 52.4423 119.388 52.5797 118.975 52.5797C118.562 52.5797 118.241 52.4423 117.966 52.1675C117.691 51.8927 117.553 51.5721 117.553 51.1599V44.4271C117.553 42.9614 117.141 41.8164 116.361 41.0836C115.581 40.3507 114.526 39.9385 113.196 39.9385C112.416 39.9385 111.728 40.0759 111.086 40.3965C110.444 40.7171 109.94 41.1294 109.619 41.679C109.252 42.2286 109.068 42.7782 109.068 43.4652V51.2057C109.068 51.6179 108.931 51.9385 108.701 52.2133C108.426 52.4881 108.105 52.6255 107.692 52.6255C107.28 52.6255 106.958 52.4881 106.683 52.2133C106.408 51.9385 106.271 51.6179 106.271 51.2057V32.5645C106.271 32.1523 106.408 31.7859 106.683 31.5568C106.958 31.282 107.28 31.1904 107.692 31.1904C108.105 31.1904 108.472 31.3278 108.701 31.5568C108.977 31.8317 109.068 32.1523 109.068 32.5645V39.2515C109.665 38.6561 110.353 38.1981 111.132 37.8775C111.958 37.5568 112.783 37.4194 113.701 37.4194C115.031 37.4194 116.177 37.6942 117.186 38.2439Z" fill="#FFA800"/>
<path d="M135.761 38.4275C136.908 39.1145 137.825 40.0305 138.513 41.1756C139.201 42.3664 139.522 43.6488 139.522 45.0687V51.7099C139.522 51.9389 139.43 52.1221 139.293 52.3053C139.155 52.4427 138.926 52.5343 138.697 52.5343C138.467 52.5343 138.284 52.4427 138.1 52.3053C137.963 52.1679 137.871 51.9389 137.871 51.7099V49.5572C137.275 50.5191 136.449 51.2977 135.394 51.8473C134.339 52.3969 133.193 52.6717 131.863 52.6717C130.441 52.6717 129.111 52.3511 127.964 51.6641C126.817 50.9771 125.854 50.061 125.212 48.916C124.524 47.771 124.203 46.4427 124.203 45.0229C124.203 43.603 124.524 42.2748 125.212 41.1298C125.9 39.9847 126.817 39.0229 127.964 38.3817C129.111 37.6946 130.441 37.374 131.863 37.374C133.33 37.4198 134.615 37.7404 135.761 38.4275ZM134.936 50.3817C135.853 49.832 136.587 49.145 137.091 48.1832C137.596 47.2672 137.871 46.2137 137.871 45.0687C137.871 43.9236 137.596 42.8702 137.091 41.9542C136.587 41.0381 135.853 40.3053 134.936 39.7557C134.018 39.2061 133.009 38.9313 131.863 38.9313C130.716 38.9313 129.707 39.2061 128.79 39.7557C127.872 40.3053 127.139 41.0381 126.634 41.9542C126.084 42.8702 125.854 43.9236 125.854 45.0687C125.854 46.2137 126.129 47.2672 126.634 48.1832C127.184 49.0992 127.872 49.832 128.79 50.3817C129.707 50.9313 130.716 51.1603 131.863 51.1603C133.009 51.1603 134.064 50.9313 134.936 50.3817Z" fill="#93CE28"/>
<path d="M154.062 38.1985C155.117 38.7481 155.942 39.5267 156.539 40.5801C157.135 41.6336 157.41 42.8702 157.41 44.3359V51.7099C157.41 51.9389 157.318 52.1221 157.181 52.3053C157.043 52.4427 156.814 52.5343 156.584 52.5343C156.355 52.5343 156.172 52.4427 155.988 52.3053C155.851 52.1679 155.759 51.9389 155.759 51.7099V44.3817C155.759 42.6412 155.254 41.313 154.291 40.3969C153.328 39.4809 152.044 39.0229 150.484 39.0229C149.521 39.0229 148.65 39.2061 147.824 39.5725C147.044 39.9389 146.402 40.4427 145.944 41.1298C145.485 41.8168 145.256 42.5496 145.256 43.3282V51.7099C145.256 51.9389 145.164 52.1221 145.026 52.3053C144.889 52.4427 144.659 52.5343 144.43 52.5343C144.201 52.5343 144.017 52.4427 143.834 52.3053C143.696 52.1679 143.604 51.9389 143.604 51.7099V38.3817C143.604 38.1068 143.696 37.9236 143.834 37.7862C143.971 37.6488 144.201 37.5572 144.43 37.5572C144.705 37.5572 144.889 37.6488 145.026 37.7862C145.164 37.9236 145.256 38.1527 145.256 38.3817V39.8015C145.898 39.0229 146.632 38.4275 147.549 38.0152C148.466 37.603 149.429 37.374 150.484 37.374C151.814 37.374 153.007 37.6488 154.062 38.1985Z" fill="#93CE28"/>
<path d="M176.352 31.3736C176.49 31.511 176.582 31.7401 176.582 31.9691V45.1141V45.1599C176.582 46.5797 176.215 47.8622 175.527 49.0072C174.839 50.1523 173.922 51.0683 172.775 51.7095C171.628 52.3507 170.344 52.6713 168.922 52.6713C167.5 52.6713 166.17 52.3507 165.024 51.6637C163.877 50.9767 162.914 50.0607 162.272 48.9156C161.584 47.7706 161.263 46.4423 161.263 45.0225C161.263 43.6026 161.584 42.3202 162.272 41.1294C162.96 39.9843 163.877 39.0225 165.024 38.3813C166.17 37.6942 167.5 37.3736 168.922 37.3736C170.206 37.3736 171.399 37.6484 172.454 38.1981C173.509 38.7477 174.334 39.5263 174.931 40.4881V32.0149C174.931 31.74 175.022 31.5568 175.16 31.4194C175.297 31.282 175.527 31.1904 175.756 31.1904C176.031 31.1904 176.215 31.2362 176.352 31.3736ZM171.995 50.3813C172.912 49.8317 173.646 49.0988 174.151 48.1828C174.655 47.2668 174.931 46.2133 174.931 45.0683C174.931 43.9233 174.655 42.8698 174.151 41.9538C173.646 41.0378 172.912 40.3049 171.995 39.7553C171.078 39.2057 170.069 38.9767 168.922 38.9767C167.776 38.9767 166.767 39.2515 165.849 39.7553C164.932 40.3049 164.198 40.992 163.694 41.9538C163.143 42.8698 162.914 43.9233 162.914 45.0683C162.914 46.2133 163.189 47.2668 163.694 48.1828C164.244 49.0988 164.932 49.8317 165.849 50.3813C166.767 50.9309 167.776 51.2057 168.922 51.2057C170.069 51.1599 171.078 50.9309 171.995 50.3813Z" fill="#93CE28"/>
<path d="M184.425 51.6633C183.278 51.0221 182.361 50.1061 181.719 48.961C181.077 47.816 180.756 46.5335 180.756 45.0679C180.756 43.6022 181.077 42.3198 181.719 41.129C182.361 39.9839 183.233 39.0679 184.379 38.4267C185.526 37.7855 186.81 37.4648 188.232 37.4648C190.388 37.4648 192.176 38.2893 193.598 39.9381C193.782 40.1213 193.873 40.3961 193.873 40.671C193.873 41.0832 193.69 41.4038 193.277 41.6786C193.094 41.816 192.864 41.8618 192.635 41.8618C192.222 41.8618 191.855 41.6786 191.58 41.358C191.121 40.8542 190.617 40.4877 190.067 40.2587C189.516 40.0297 188.92 39.9381 188.232 39.9381C186.81 39.9381 185.663 40.3961 184.792 41.358C183.921 42.3198 183.462 43.5564 183.462 45.1137C183.462 46.1213 183.645 46.9916 184.058 47.7702C184.471 48.5488 185.067 49.1442 185.801 49.6022C186.535 50.0603 187.406 50.2435 188.324 50.2435C189.562 50.2435 190.571 49.9229 191.351 49.2816C191.718 49.0068 192.039 48.9152 192.36 48.9152C192.635 48.9152 192.864 49.0068 193.094 49.1442C193.461 49.419 193.598 49.7855 193.598 50.1061C193.598 50.3809 193.506 50.6099 193.277 50.8389C191.947 52.0755 190.296 52.6709 188.324 52.6709C186.856 52.6709 185.572 52.3045 184.425 51.6633Z" fill="#93CE28"/>
<path d="M200.844 51.6633C199.697 51.0221 198.78 50.1061 198.138 48.961C197.496 47.816 197.175 46.4877 197.175 45.0679C197.175 43.6022 197.496 42.274 198.138 41.129C198.78 39.9839 199.652 39.0679 200.844 38.4267C201.991 37.7855 203.321 37.4648 204.743 37.4648C206.164 37.4648 207.494 37.7855 208.641 38.4267C209.788 39.0679 210.659 39.9839 211.347 41.129C211.989 42.274 212.31 43.6022 212.31 45.0679C212.31 46.5335 211.989 47.816 211.347 48.961C210.705 50.1061 209.834 51.0221 208.687 51.6633C207.54 52.3045 206.256 52.6252 204.788 52.6252C203.321 52.671 201.991 52.3503 200.844 51.6633ZM207.265 49.5564C207.999 49.0984 208.595 48.503 209.008 47.7244C209.421 46.9458 209.604 46.0755 209.604 45.0679C209.604 44.1061 209.421 43.19 209.008 42.4114C208.595 41.6328 207.999 41.0374 207.265 40.5793C206.531 40.1213 205.706 39.9381 204.743 39.9381C203.825 39.9381 202.954 40.1671 202.22 40.5793C201.486 41.0374 200.89 41.6328 200.477 42.4114C200.064 43.19 199.835 44.0603 199.835 45.0679C199.835 46.0755 200.064 46.9458 200.477 47.7244C200.89 48.503 201.486 49.0984 202.22 49.5564C202.954 50.0145 203.779 50.1977 204.743 50.1977C205.706 50.1977 206.531 49.9687 207.265 49.5564Z" fill="#93CE28"/>
<path d="M219.328 51.6633C218.182 51.0221 217.264 50.1061 216.622 48.961C215.98 47.816 215.659 46.4877 215.659 45.0679C215.659 43.6022 215.98 42.274 216.622 41.129C217.264 39.9839 218.136 39.0679 219.328 38.4267C220.475 37.7855 221.805 37.4648 223.227 37.4648C224.649 37.4648 225.979 37.7855 227.126 38.4267C228.272 39.0679 229.144 39.9839 229.832 41.129C230.474 42.274 230.795 43.6022 230.795 45.0679C230.795 46.5335 230.474 47.816 229.832 48.961C229.189 50.1061 228.318 51.0221 227.171 51.6633C226.025 52.3045 224.74 52.6252 223.273 52.6252C221.805 52.671 220.521 52.3503 219.328 51.6633ZM225.795 49.5564C226.529 49.0984 227.125 48.503 227.538 47.7244C227.951 46.9458 228.135 46.0755 228.135 45.0679C228.135 44.1061 227.951 43.19 227.538 42.4114C227.125 41.6328 226.529 41.0374 225.795 40.5793C225.062 40.1213 224.236 39.9381 223.273 39.9381C222.356 39.9381 221.484 40.1671 220.75 40.5793C220.016 41.0374 219.42 41.6328 219.007 42.4114C218.595 43.19 218.365 44.0603 218.365 45.0679C218.365 46.0755 218.595 46.9458 219.007 47.7244C219.42 48.503 220.016 49.0984 220.75 49.5564C221.484 50.0145 222.31 50.1977 223.273 50.1977C224.19 50.1977 225.016 49.9687 225.795 49.5564Z" fill="#93CE28"/>
<path d="M246.572 51.3889C246.572 51.8011 246.388 52.1217 246.067 52.3965C245.792 52.6255 245.517 52.7171 245.196 52.7171C244.783 52.7171 244.462 52.5339 244.233 52.2133L239.004 45.8011L237.628 46.992V51.1599C237.628 51.5721 237.49 51.8927 237.261 52.1217C237.032 52.3507 236.711 52.4881 236.298 52.4881C235.885 52.4881 235.564 52.3507 235.335 52.1217C235.105 51.8927 234.968 51.5721 234.968 51.1599V32.5187C234.968 32.1065 235.105 31.7859 235.335 31.5568C235.564 31.3278 235.885 31.1904 236.298 31.1904C236.711 31.1904 237.032 31.3278 237.261 31.5568C237.49 31.7859 237.628 32.1065 237.628 32.5187V43.6484L244.278 37.6942C244.508 37.4652 244.783 37.3278 245.15 37.3278C245.517 37.3278 245.838 37.4652 246.067 37.7858C246.297 38.0149 246.434 38.2897 246.434 38.6561C246.434 39.0225 246.296 39.3431 245.975 39.5721L240.93 44.0607L246.251 50.5645C246.48 50.7935 246.572 51.0683 246.572 51.3889Z" fill="#93CE28"/>
</svg>
